<svg xmlns="http://www.w3.org/2000/svg" viewBox="0 0 64 64" fill="none">
  <!-- KrishiAi Logo Icon — Wheat stalk with AI node -->
  <g transform="translate(8, 2)">
    <path d="M24 58 L24 16" stroke="#2D6A4F" stroke-width="3" stroke-linecap="round"/>
    <path d="M24 46 C16 42, 9 33, 6 24 C12 28, 17 35, 24 40" fill="#2D6A4F"/>
    <path d="M24 34 C16 30, 11 21, 9 12 C14 18, 19 25, 24 30" fill="#52B788"/>
    <path d="M24 46 C32 42, 39 33, 42 24 C36 28, 31 35, 24 40" fill="#2D6A4F"/>
    <path d="M24 34 C32 30, 37 21, 39 12 C34 18, 29 25, 24 30" fill="#52B788"/>
    <ellipse cx="24" cy="10" rx="5" ry="8" fill="#F4A300"/>
    <ellipse cx="16" cy="16" rx="4" ry="7" fill="#F4A300" transform="rotate(-20 16 16)"/>
    <ellipse cx="32" cy="16" rx="4" ry="7" fill="#F4A300" transform="rotate(20 32 16)"/>
    <circle cx="24" cy="10" r="3" fill="#2D6A4F"/>
    <circle cx="16" cy="5" r="1.5" fill="#2D6A4F"/>
    <circle cx="32" cy="5" r="1.5" fill="#2D6A4F"/>
    <line x1="24" y1="10" x2="16" y2="5" stroke="#2D6A4F" stroke-width="1"/>
    <line x1="24" y1="10" x2="32" y2="5" stroke="#2D6A4F" stroke-width="1"/>
  </g>
</svg>
